<?xml version="1.0" encoding="UTF-8" standalone="no"?>
<svg
   width="512"
   height="512"
   fill="none"
   version="1.1"
   id="svg1"
   sodipodi:docname="livekit-safari-pinned-tab.svg"
   xml:space="preserve"
   inkscape:version="1.4.3 (0d15f75, 2025-12-25)"
   xmlns:inkscape="http://www.inkscape.org/namespaces/inkscape"
   xmlns:sodipodi="http://sodipodi.sourceforge.net/DTD/sodipodi-0.dtd"
   xmlns="http://www.w3.org/2000/svg"
   xmlns:svg="http://www.w3.org/2000/svg"><defs
     id="defs1"><inkscape:path-effect
       effect="powermask"
       id="path-effect33"
       is_visible="true"
       lpeversion="1"
       uri="#mask-powermask-path-effect33"
       invert="false"
       hide_mask="false"
       background="true"
       background_color="#ffffffff" /><filter
       id="filter0_i_9_76"
       x="251"
       y="10.5"
       width="17"
       height="108.5"
       filterUnits="userSpaceOnUse"
       color-interpolation-filters="sRGB"><feFlood
         flood-opacity="0"
         result="BackgroundImageFix"
         id="feFlood6" /><feBlend
         mode="normal"
         in="SourceGraphic"
         in2="BackgroundImageFix"
         result="shape"
         id="feBlend6" /><feColorMatrix
         in="SourceAlpha"
         type="matrix"
         values="0 0 0 0 0 0 0 0 0 0 0 0 0 0 0 0 0 0 127 0"
         result="hardAlpha"
         id="feColorMatrix6" /><feOffset
         dy="4"
         id="feOffset6" /><feGaussianBlur
         stdDeviation="2"
         id="feGaussianBlur6" /><feComposite
         in2="hardAlpha"
         operator="arithmetic"
         k2="-1"
         k3="1"
         id="feComposite6"
         k1="0"
         k4="0" /><feColorMatrix
         type="matrix"
         values="0 0 0 0 0 0 0 0 0 0 0 0 0 0 0 0 0 0 0.4 0"
         id="feColorMatrix7" /><feBlend
         mode="normal"
         in2="shape"
         result="effect1_innerShadow_9_76"
         id="feBlend7" /></filter><filter
       id="filter1_i_9_76"
       x="159"
       y="37"
       width="78"
       height="82"
       filterUnits="userSpaceOnUse"
       color-interpolation-filters="sRGB"><feFlood
         flood-opacity="0"
         result="BackgroundImageFix"
         id="feFlood7" /><feBlend
         mode="normal"
         in="SourceGraphic"
         in2="BackgroundImageFix"
         result="shape"
         id="feBlend8" /><feColorMatrix
         in="SourceAlpha"
         type="matrix"
         values="0 0 0 0 0 0 0 0 0 0 0 0 0 0 0 0 0 0 127 0"
         result="hardAlpha"
         id="feColorMatrix8" /><feOffset
         dy="4"
         id="feOffset8" /><feGaussianBlur
         stdDeviation="2"
         id="feGaussianBlur8" /><feComposite
         in2="hardAlpha"
         operator="arithmetic"
         k2="-1"
         k3="1"
         id="feComposite8"
         k1="0"
         k4="0" /><feColorMatrix
         type="matrix"
         values="0 0 0 0 0 0 0 0 0 0 0 0 0 0 0 0 0 0 0.4 0"
         id="feColorMatrix9" /><feBlend
         mode="normal"
         in2="shape"
         result="effect1_innerShadow_9_76"
         id="feBlend9" /></filter><filter
       id="filter2_i_9_76"
       x="85.003403"
       y="37.0098"
       width="73.004204"
       height="81.990196"
       filterUnits="userSpaceOnUse"
       color-interpolation-filters="sRGB"><feFlood
         flood-opacity="0"
         result="BackgroundImageFix"
         id="feFlood9" /><feBlend
         mode="normal"
         in="SourceGraphic"
         in2="BackgroundImageFix"
         result="shape"
         id="feBlend10" /><feColorMatrix
         in="SourceAlpha"
         type="matrix"
         values="0 0 0 0 0 0 0 0 0 0 0 0 0 0 0 0 0 0 127 0"
         result="hardAlpha"
         id="feColorMatrix10" /><feOffset
         dy="4"
         id="feOffset10" /><feGaussianBlur
         stdDeviation="2"
         id="feGaussianBlur10" /><feComposite
         in2="hardAlpha"
         operator="arithmetic"
         k2="-1"
         k3="1"
         id="feComposite10"
         k1="0"
         k4="0" /><feColorMatrix
         type="matrix"
         values="0 0 0 0 0 0 0 0 0 0 0 0 0 0 0 0 0 0 0.4 0"
         id="feColorMatrix11" /><feBlend
         mode="normal"
         in2="shape"
         result="effect1_innerShadow_9_76"
         id="feBlend11" /></filter><filter
       id="filter3_i_9_76"
       x="0"
       y="37"
       width="78"
       height="82"
       filterUnits="userSpaceOnUse"
       color-interpolation-filters="sRGB"><feFlood
         flood-opacity="0"
         result="BackgroundImageFix"
         id="feFlood11" /><feBlend
         mode="normal"
         in="SourceGraphic"
         in2="BackgroundImageFix"
         result="shape"
         id="feBlend12" /><feColorMatrix
         in="SourceAlpha"
         type="matrix"
         values="0 0 0 0 0 0 0 0 0 0 0 0 0 0 0 0 0 0 127 0"
         result="hardAlpha"
         id="feColorMatrix12" /><feOffset
         dy="4"
         id="feOffset12" /><feGaussianBlur
         stdDeviation="2"
         id="feGaussianBlur12" /><feComposite
         in2="hardAlpha"
         operator="arithmetic"
         k2="-1"
         k3="1"
         id="feComposite12"
         k1="0"
         k4="0" /><feColorMatrix
         type="matrix"
         values="0 0 0 0 0 0 0 0 0 0 0 0 0 0 0 0 0 0 0.4 0"
         id="feColorMatrix13" /><feBlend
         mode="normal"
         in2="shape"
         result="effect1_innerShadow_9_76"
         id="feBlend13" /></filter><filter
       id="filter4_i_9_76"
       x="65"
       y="0"
       width="13"
       height="85"
       filterUnits="userSpaceOnUse"
       color-interpolation-filters="sRGB"><feFlood
         flood-opacity="0"
         result="BackgroundImageFix"
         id="feFlood13" /><feBlend
         mode="normal"
         in="SourceGraphic"
         in2="BackgroundImageFix"
         result="shape"
         id="feBlend14" /><feColorMatrix
         in="SourceAlpha"
         type="matrix"
         values="0 0 0 0 0 0 0 0 0 0 0 0 0 0 0 0 0 0 127 0"
         result="hardAlpha"
         id="feColorMatrix14" /><feOffset
         dy="4"
         id="feOffset14" /><feGaussianBlur
         stdDeviation="2"
         id="feGaussianBlur14" /><feComposite
         in2="hardAlpha"
         operator="arithmetic"
         k2="-1"
         k3="1"
         id="feComposite14"
         k1="0"
         k4="0" /><feColorMatrix
         type="matrix"
         values="0 0 0 0 0 0 0 0 0 0 0 0 0 0 0 0 0 0 0.4 0"
         id="feColorMatrix15" /><feBlend
         mode="normal"
         in2="shape"
         result="effect1_innerShadow_9_76"
         id="feBlend15" /></filter><filter
       id="filter0_i_9_75"
       x="251"
       y="10.5"
       width="17"
       height="108.5"
       filterUnits="userSpaceOnUse"
       color-interpolation-filters="sRGB"><feFlood
         flood-opacity="0"
         result="BackgroundImageFix"
         id="feFlood5" /><feBlend
         mode="normal"
         in="SourceGraphic"
         in2="BackgroundImageFix"
         result="shape"
         id="feBlend5" /><feColorMatrix
         in="SourceAlpha"
         type="matrix"
         values="0 0 0 0 0 0 0 0 0 0 0 0 0 0 0 0 0 0 127 0"
         result="hardAlpha"
         id="feColorMatrix5" /><feOffset
         dy="4"
         id="feOffset5" /><feGaussianBlur
         stdDeviation="2"
         id="feGaussianBlur5" /><feComposite
         in2="hardAlpha"
         operator="arithmetic"
         k2="-1"
         k3="1"
         id="feComposite5" /><feColorMatrix
         type="matrix"
         values="0 0 0 0 0 0 0 0 0 0 0 0 0 0 0 0 0 0 0.4 0"
         id="feColorMatrix6-1" /><feBlend
         mode="normal"
         in2="shape"
         result="effect1_innerShadow_9_75"
         id="feBlend6-6" /></filter><filter
       id="filter1_i_9_75"
       x="159"
       y="37"
       width="78"
       height="82"
       filterUnits="userSpaceOnUse"
       color-interpolation-filters="sRGB"><feFlood
         flood-opacity="0"
         result="BackgroundImageFix"
         id="feFlood6-8" /><feBlend
         mode="normal"
         in="SourceGraphic"
         in2="BackgroundImageFix"
         result="shape"
         id="feBlend7-5" /><feColorMatrix
         in="SourceAlpha"
         type="matrix"
         values="0 0 0 0 0 0 0 0 0 0 0 0 0 0 0 0 0 0 127 0"
         result="hardAlpha"
         id="feColorMatrix7-7" /><feOffset
         dy="4"
         id="feOffset7" /><feGaussianBlur
         stdDeviation="2"
         id="feGaussianBlur7" /><feComposite
         in2="hardAlpha"
         operator="arithmetic"
         k2="-1"
         k3="1"
         id="feComposite7" /><feColorMatrix
         type="matrix"
         values="0 0 0 0 0 0 0 0 0 0 0 0 0 0 0 0 0 0 0.4 0"
         id="feColorMatrix8-6" /><feBlend
         mode="normal"
         in2="shape"
         result="effect1_innerShadow_9_75"
         id="feBlend8-1" /></filter><filter
       id="filter2_i_9_75"
       x="85.0034"
       y="37.0098"
       width="73.0042"
       height="81.9902"
       filterUnits="userSpaceOnUse"
       color-interpolation-filters="sRGB"><feFlood
         flood-opacity="0"
         result="BackgroundImageFix"
         id="feFlood8" /><feBlend
         mode="normal"
         in="SourceGraphic"
         in2="BackgroundImageFix"
         result="shape"
         id="feBlend9-8" /><feColorMatrix
         in="SourceAlpha"
         type="matrix"
         values="0 0 0 0 0 0 0 0 0 0 0 0 0 0 0 0 0 0 127 0"
         result="hardAlpha"
         id="feColorMatrix9-9" /><feOffset
         dy="4"
         id="feOffset9" /><feGaussianBlur
         stdDeviation="2"
         id="feGaussianBlur9" /><feComposite
         in2="hardAlpha"
         operator="arithmetic"
         k2="-1"
         k3="1"
         id="feComposite9" /><feColorMatrix
         type="matrix"
         values="0 0 0 0 0 0 0 0 0 0 0 0 0 0 0 0 0 0 0.4 0"
         id="feColorMatrix10-2" /><feBlend
         mode="normal"
         in2="shape"
         result="effect1_innerShadow_9_75"
         id="feBlend10-7" /></filter><filter
       id="filter3_i_9_75"
       x="0"
       y="0"
       width="78"
       height="119"
       filterUnits="userSpaceOnUse"
       color-interpolation-filters="sRGB"><feFlood
         flood-opacity="0"
         result="BackgroundImageFix"
         id="feFlood10" /><feBlend
         mode="normal"
         in="SourceGraphic"
         in2="BackgroundImageFix"
         result="shape"
         id="feBlend11-9" /><feColorMatrix
         in="SourceAlpha"
         type="matrix"
         values="0 0 0 0 0 0 0 0 0 0 0 0 0 0 0 0 0 0 127 0"
         result="hardAlpha"
         id="feColorMatrix11-5" /><feOffset
         dy="4"
         id="feOffset11" /><feGaussianBlur
         stdDeviation="2"
         id="feGaussianBlur11" /><feComposite
         in2="hardAlpha"
         operator="arithmetic"
         k2="-1"
         k3="1"
         id="feComposite11" /><feColorMatrix
         type="matrix"
         values="0 0 0 0 0 0 0 0 0 0 0 0 0 0 0 0 0 0 0.4 0"
         id="feColorMatrix12-4" /><feBlend
         mode="normal"
         in2="shape"
         result="effect1_innerShadow_9_75"
         id="feBlend12-3" /></filter><mask
       maskUnits="userSpaceOnUse"
       id="mask-powermask-path-effect33"><path
         id="mask-powermask-path-effect33_box"
         style="fill:#ffffff;fill-opacity:1"
         d="M 0.06690311,0.19205761 H 512.38323 V 512.50533 H 0.06690311 Z" /><g
         style="fill:none"
         id="g33"
         transform="matrix(1.7212684,0,0,1.7212684,25.643408,155.25674)"><g
           filter="url(#filter0_i_9_75)"
           id="g28"><rect
             x="253"
             y="36"
             width="13"
             height="79"
             rx="6.5"
             fill="#1a1a1c"
             id="rect28"
             d="m 259.5,36 c 3.601,0 6.5,2.899 6.5,6.5 v 66 c 0,3.601 -2.899,6.5 -6.5,6.5 -3.601,0 -6.5,-2.899 -6.5,-6.5 v -66 c 0,-3.601 2.899,-6.5 6.5,-6.5 z" /><circle
             cx="259.5"
             cy="19"
             r="8.5"
             fill="#1a1a1c"
             id="circle28"
             d="M 268,19 A 8.5,8.5 0 0 1 259.5,27.5 8.5,8.5 0 0 1 251,19 8.5,8.5 0 0 1 259.5,10.5 8.5,8.5 0 0 1 268,19 Z" /></g><g
           filter="url(#filter1_i_9_75)"
           id="g29"><rect
             x="224"
             y="69"
             width="13"
             height="46"
             rx="6.5"
             fill="#1a1a1c"
             id="rect29"
             d="m 230.5,69 c 3.601,0 6.5,2.899 6.5,6.5 v 33 c 0,3.601 -2.899,6.5 -6.5,6.5 -3.601,0 -6.5,-2.899 -6.5,-6.5 v -33 c 0,-3.601 2.899,-6.5 6.5,-6.5 z" /><path
             d="m 198,37 c 21.539,0 39,17.4609 39,39 0,11.5495 -5.022,21.9243 -13,29.065 V 77 h -0.021 C 223.991,76.6682 224,76.3349 224,76 224,61.6406 212.359,50 198,50 c -14.359,0 -26,11.6406 -26,26 0,14.3594 11.641,26 26,26 7.499,0 14.255,-3.1762 19,-8.2549 v 16.3179 c -5.622,3.143 -12.101,4.937 -19,4.937 -21.539,0 -39,-17.4609 -39,-39 0,-21.5391 17.461,-39 39,-39 z"
             fill="#1a1a1c"
             id="path29" /></g><g
           filter="url(#filter2_i_9_75)"
           id="g31"><rect
             x="82.945297"
             y="40.1964"
             width="13.0063"
             height="83.0998"
             rx="6.4928398"
             transform="rotate(-23.6314,82.9453,40.1964)"
             fill="#1a1a1c"
             id="rect30"
             d="m 89.438137,40.1964 h 0.02062 c 3.597034,0 6.49284,2.895806 6.49284,6.49284 v 70.11412 c 0,3.59703 -2.895806,6.49284 -6.49284,6.49284 h -0.02062 c -3.597033,0 -6.49284,-2.89581 -6.49284,-6.49284 V 46.68924 c 0,-3.597034 2.895807,-6.49284 6.49284,-6.49284 z" /><rect
             x="148.145"
             y="34.948898"
             width="13.0133"
             height="83.113701"
             rx="6.4988799"
             transform="rotate(23.63,148.145,34.9489)"
             fill="#1a1a1c"
             id="rect31"
             d="m 154.64388,34.948898 h 0.0155 c 3.60038,0 6.49888,2.898501 6.49888,6.49888 v 70.115942 c 0,3.60038 -2.8985,6.49888 -6.49888,6.49888 h -0.0155 c -3.60038,0 -6.49888,-2.8985 -6.49888,-6.49888 V 41.447778 c 0,-3.600379 2.8985,-6.49888 6.49888,-6.49888 z" /><ellipse
             cx="121.5"
             cy="107.5"
             rx="8.5"
             ry="7.5"
             fill="#1a1a1c"
             id="ellipse31"
             d="m 130,107.5 a 8.5,7.5 0 0 1 -8.5,7.5 8.5,7.5 0 0 1 -8.5,-7.5 8.5,7.5 0 0 1 8.5,-7.5 8.5,7.5 0 0 1 8.5,7.5 z" /></g><g
           filter="url(#filter3_i_9_75)"
           id="g32"><rect
             x="65"
             width="13"
             height="81"
             rx="6.5"
             fill="#1a1a1c"
             id="rect32"
             y="0"
             d="M 71.5,0 C 75.101,0 78,2.899 78,6.5 v 68 C 78,78.101 75.101,81 71.5,81 67.899,81 65,78.101 65,74.5 V 6.5 C 65,2.899 67.899,0 71.5,0 Z" /><path
             d="m 39,37 c 6.8986,0 13.3778,1.7929 19,4.9355 V 58.2539 C 53.2548,53.1755 46.4987,50 39,50 24.6406,50 13,61.6406 13,76 c 0,14.3594 11.6406,26 26,26 14.3594,0 26,-11.6406 26,-26 V 46.9336 C 72.9779,54.0747 78,64.4502 78,76 78,97.5391 60.5391,115 39,115 17.4609,115 0,97.5391 0,76 0,54.4609 17.4609,37 39,37 Z"
             fill="#1a1a1c"
             id="path32" /></g></g></mask><filter
       id="mask-powermask-path-effect33_inverse"
       inkscape:label="filtermask-powermask-path-effect33"
       style="color-interpolation-filters:sRGB"
       height="100"
       width="100"
       x="-50"
       y="-50"><feColorMatrix
         id="mask-powermask-path-effect33_primitive1"
         values="1"
         type="saturate"
         result="fbSourceGraphic" /><feColorMatrix
         id="mask-powermask-path-effect33_primitive2"
         values="-1 0 0 0 1 0 -1 0 0 1 0 0 -1 0 1 0 0 0 1 0 "
         in="fbSourceGraphic" /></filter></defs><sodipodi:namedview
     id="namedview1"
     pagecolor="#ffffff"
     bordercolor="#666666"
     borderopacity="1.0"
     inkscape:showpageshadow="2"
     inkscape:pageopacity="0.0"
     inkscape:pagecheckerboard="0"
     inkscape:deskcolor="#d1d1d1"
     inkscape:zoom="0.78808594"
     inkscape:cx="263.93061"
     inkscape:cy="420.6394"
     inkscape:window-width="1920"
     inkscape:window-height="1009"
     inkscape:window-x="-8"
     inkscape:window-y="-8"
     inkscape:window-maximized="1"
     inkscape:current-layer="svg1" /><path
     style="fill:#000000;fill-opacity:1;stroke:#000000;stroke-width:22.9821;stroke-opacity:1"
     id="rect10"
     width="487.33423"
     height="487.33118"
     x="12.557953"
     y="12.683107"
     rx="243.59427"
     mask="url(#mask-powermask-path-effect33)"
     inkscape:path-effect="#path-effect33"
     sodipodi:type="rect"
     d="m 256.15222,12.683107 h 0.14569 c 134.95123,0 243.59427,108.643043 243.59427,243.594273 v 0.14264 c 0,134.95122 -108.64304,243.59426 -243.59427,243.59426 h -0.14569 C 121.201,500.01428 12.557953,391.37124 12.557953,256.42002 v -0.14264 C 12.557953,121.32615 121.201,12.683107 256.15222,12.683107 Z" /></svg>
